<svg xmlns="http://www.w3.org/2000/svg" xml:space="preserve" width="7.11111in" height="7.11111in" version="1.1" style="shape-rendering:geometricPrecision; text-rendering:geometricPrecision; image-rendering:optimizeQuality; fill-rule:evenodd; clip-rule:evenodd" viewBox="0 0 7111 7111" xmlns:xlink="http://www.w3.org/1999/xlink">
 <defs>
  <style type="text/css">
   
    .fil0 {fill:#0B3E3E}
   
  </style>
 </defs>
 <g id="Layer_x0020_1">
  <metadata id="CorelCorpID_0Corel-Layer"></metadata>
  <path class="fil0" d="M786 1470c-286,0 -561,-121 -754,-331 -42,-46 -42,-117 0,-164 193,-210 468,-331 754,-331 267,0 525,106 716,292l234 0c-19,-16 -38,-34 -56,-52 -199,-199 -306,-474 -294,-754 3,-63 53,-113 116,-116 543,-23 1001,386 1045,922l320 0c-20,-16 -38,-34 -57,-52 -198,-199 -305,-474 -293,-754 2,-63 52,-113 115,-116 543,-23 1001,386 1046,922l319 0c-19,-16 -38,-34 -56,-52 -199,-199 -306,-474 -294,-754 3,-63 53,-113 116,-116 543,-23 1001,386 1045,922l320 0c-19,-16 -38,-34 -57,-52 -198,-199 -305,-474 -293,-754 2,-63 53,-113 115,-116 543,-23 1001,386 1046,922l1051 0c67,0 121,54 121,121 0,67 -54,121 -121,121l-1051 0c-45,536 -503,946 -1046,922 -62,-2 -113,-53 -115,-115 -12,-281 95,-556 293,-755 19,-18 37,-35 57,-52l-320 0c-44,536 -503,946 -1045,922 -63,-2 -113,-53 -116,-115 -12,-281 95,-556 294,-755 18,-18 37,-35 56,-52l-319 0c-45,536 -503,946 -1046,922 -63,-2 -113,-53 -115,-115 -12,-281 95,-556 293,-755 19,-18 37,-35 57,-52l-320 0c-44,536 -503,946 -1045,922 -63,-2 -113,-53 -116,-115 -12,-281 95,-556 294,-755 18,-18 37,-35 56,-52l-234 0c-191,186 -449,292 -716,292zm6204 2462l-237 0 -1149 2581c-19,43 -62,71 -110,71l-113 0 0 393c0,67 -54,121 -121,121l-3409 0c-67,0 -121,-54 -121,-121l0 -393 -113 0c-48,0 -91,-28 -110,-71l-1149 -2581 -237 0c-67,0 -121,-54 -121,-121l0 -690c0,-66 54,-121 121,-121l6869 0c67,0 121,55 121,121l0 690c0,67 -54,121 -121,121zm-6748 -242l6627 0 0 -448 -6627 0 0 448zm1453 2653l3721 0 1073 -2411 -5867 0 1073 2411zm3474 -259l-3227 0c-48,0 -91,-28 -110,-72l-735 -1651c-36,-80 23,-170 110,-170l4697 0c87,0 146,90 110,170l-735 1651c-19,44 -62,72 -110,72zm-3149 -242l3071 0 627 -1410 -4325 0 627 1410zm-48 1015l3168 0 0 -273 -3168 0 0 273zm3724 -5675c-353,40 -632,320 -673,673 353,-40 632,-320 673,-673zm-673 -923c41,354 319,633 673,673 -41,-353 -320,-633 -673,-673zm-458 923c-353,40 -632,320 -672,673 353,-40 632,-320 672,-673zm-672 -923c40,354 319,633 672,673 -40,-353 -319,-633 -672,-673zm-458 923c-353,40 -632,320 -673,673 353,-40 632,-320 673,-673zm-673 -923c41,354 319,633 673,673 -41,-353 -320,-633 -673,-673zm-458 923c-353,40 -632,320 -672,673 353,-40 632,-320 672,-673zm-672 -923c40,354 319,633 672,673 -40,-353 -319,-633 -672,-673zm-1334 798c286,229 690,229 976,0 -286,-228 -691,-228 -976,0z" id="id_101" style="fill: rgb(3, 3, 3);"></path>
 </g>
</svg>