<svg version="1.1" id="Layer_1" xmlns="http://www.w3.org/2000/svg" xmlns:xlink="http://www.w3.org/1999/xlink" x="0px" y="0px" viewBox="0 0 370.693 370.693" style="enable-background:new 0 0 370.693 370.693;" xml:space="preserve">
<g>
	<rect x="312.472" y="223.087" width="10" height="11.424" id="id_101" style="fill: rgb(255, 255, 255);"></rect>
	<path d="M312.472,203.313v10.659h10v-10.659c0-17.028-13.854-30.881-30.881-30.881v10
		C303.104,182.432,312.472,191.799,312.472,203.313z" id="id_102" style="fill: rgb(255, 255, 255);"></path>
	<path d="M350.189,283.669h-8.642v-83.355c0-25.299-20.582-45.881-45.881-45.881H176.98l-60.022-42.852L45.802,60.78
		c-4.076-2.91-9.042-4.058-13.979-3.233c-4.939,0.825-9.262,3.523-12.171,7.598c-6.006,8.413-4.048,20.144,4.364,26.15
		l67.019,47.847l-0.05,0.07l19.547,13.956c0.402,0.287,0.712,0.651,0.942,1.054l-23.553-0.215c-0.144-0.001-0.283-0.002-0.426-0.002
		c-25.103,0-45.642,20.307-45.873,45.461l-0.03,3.27H21.519C9.653,202.733,0,212.387,0,224.252
		c0,15.136,12.313,27.449,27.449,27.449h14.334v31.968h-7.286c-11.306,0-20.504,9.198-20.504,20.504v9.234h356.7v-9.234
		C370.693,292.867,361.495,283.669,350.189,283.669z M331.547,200.313v83.277h-88.712v-34.977c0-4.83-0.755-9.486-2.145-13.861
		c3.816-2.607,7.127-5.84,9.837-9.637c2.296-3.216,3.203-7.133,2.552-11.031c-0.65-3.898-2.78-7.309-5.996-9.604l-4.45-3.177
		l0.034,0c0.137-14.992-6.97-28.392-18.048-36.872h71.047C315.451,164.432,331.547,180.528,331.547,200.313z M197.115,165.004
		c9.584,0.087,18.56,3.902,25.275,10.741c4.918,5.009,8.183,11.203,9.548,17.923l-40.219-28.713L197.115,165.004z M27.792,70.955
		c1.357-1.901,3.374-3.16,5.678-3.545c0.487-0.082,0.975-0.122,1.459-0.122c1.806,0,3.563,0.56,5.063,1.63l67.019,47.847h0
		l4.306,3.074l-10.164,14.237L29.828,83.156C25.903,80.353,24.989,74.88,27.792,70.955z M109.242,139.957l10.214-14.307L173.172,164
		v0.432h0.605l67.496,48.187c1.042,0.744,1.732,1.849,1.943,3.112c0.21,1.263-0.083,2.533-0.827,3.575
		c-1.668,2.335-3.641,4.379-5.871,6.115c-7.981-13.561-22.722-22.688-39.564-22.688h-7.672h-20.715l-48.352-34.52
		c-0.72-0.514-1.196-1.277-1.342-2.149c-0.146-0.873,0.058-1.749,0.571-2.469c4.265-5.974,2.874-14.303-3.099-18.567
		L109.242,139.957z M87.497,164.003c0.111,0,0.222,0,0.333,0.002l21.07,0.193c-0.114,1.157-0.089,2.335,0.108,3.512
		c0.585,3.507,2.501,6.576,5.395,8.642l36.953,26.381H51.594l0.029-3.178C51.803,179.883,67.864,164.003,87.497,164.003z
		 M10,224.251c0-6.351,5.167-11.518,11.519-11.518h25.265h113.854c-4.051,3.247-7.583,7.218-10.418,11.811
		c-6.532,10.583-18.509,17.157-31.256,17.157H27.449C17.828,241.701,10,233.873,10,224.251z M51.783,251.701h67.179
		c16.189,0,31.426-8.394,39.766-21.905c6.594-10.684,18.016-17.063,30.553-17.063h7.672c19.785,0,35.881,16.096,35.881,35.881
		v35.055H51.783V251.701z M24.021,303.408c0.393-5.436,4.942-9.739,10.477-9.739h315.691c5.535,0,10.083,4.303,10.477,9.739H24.021z
		" id="id_103" style="fill: rgb(255, 255, 255);"></path>
</g>
<g>
</g>
<g>
</g>
<g>
</g>
<g>
</g>
<g>
</g>
<g>
</g>
<g>
</g>
<g>
</g>
<g>
</g>
<g>
</g>
<g>
</g>
<g>
</g>
<g>
</g>
<g>
</g>
<g>
</g>
</svg>
