<svg version="1.1" id="Layer_1" xmlns="http://www.w3.org/2000/svg" xmlns:xlink="http://www.w3.org/1999/xlink" x="0px" y="0px" viewBox="0 0 379.905 379.905" style="enable-background:new 0 0 379.905 379.905;" xml:space="preserve">
<path d="M342.498,113.207c-0.191-0.194-0.398-0.373-0.619-0.533L282.954,69.77V57.404h10.552c2.762,0,5-2.239,5-5V5
	c0-2.761-2.238-5-5-5h-150.86c-2.762,0-5,2.239-5,5v47.404c0,2.761,2.238,5,5,5h8.764v13.88l-57.127,41.382
	c-0.224,0.163-0.434,0.343-0.628,0.54c-6.876,6.979-10.662,16.218-10.662,26.017v19.3v84.522h-9.654
	c-15.655,0-29.367,9.77-34.615,24.191h-6.977c-1.443,0-2.815,0.624-3.766,1.71c-0.949,1.087-1.383,2.531-1.189,3.961l13.897,102.668
	c0.336,2.479,2.453,4.329,4.955,4.329h104.055c2.492,0,4.604-1.835,4.951-4.304l0.537-3.816H317.85c19.47,0,35.31-15.84,35.31-35.31
	v-27.683v-18.195v-88.473v-43.602v-19.3C353.159,129.426,349.373,120.187,342.498,113.207z M284.822,267.237h-54.625
	c-13.508-17.346-32.987-40.033-38.026-45.871v-34.18c0-3.449,2.806-6.255,6.255-6.255h26.497c3.449,0,6.255,2.806,6.255,6.255
	v19.531c0,3.341-1.461,6.517-4.008,8.713c-1.25,1.077-1.888,2.701-1.704,4.341c0.183,1.639,1.162,3.083,2.618,3.859
	c10.088,5.374,24.711,14.254,37.088,26.042c1.221,1.163,2.944,1.631,4.585,1.249l0.977-0.228c1.638-0.382,2.973-1.562,3.555-3.139
	c3.373-9.146,12.191-15.291,21.943-15.291c2.978,0,5.889,0.559,8.65,1.66c2.533,1.012,5.41-0.197,6.463-2.713
	c5.56-13.271,17.761-22.284,31.814-23.852v78.24h-59.178c3.486-4.026,5.841-8.758,5.841-13.361
	C289.822,269.476,287.584,267.237,284.822,267.237z M92.992,163.523h250.167v33.792c-16.588,1.47-31.254,11.185-39.071,25.883
	c-2.562-0.622-5.19-0.935-7.856-0.935c-11.785,0-22.617,6.289-28.585,16.141c-9.974-8.696-20.742-15.655-29.521-20.657
	c1.978-3.3,3.053-7.103,3.053-11.03v-19.531c0-8.963-7.292-16.255-16.255-16.255h-26.497c-8.963,0-16.255,7.292-16.255,16.255
	v36.042c0,1.205,0.435,2.369,1.225,3.278c0.217,0.25,19.08,21.993,34.06,40.73h-58.598v-2.581c0-21.753-17.697-39.45-39.45-39.45
	c-9.907,0-19.273,3.727-26.415,10.166V163.523z M268.593,295.598h74.567v8.195H164.746l1.079-7.678h98.864
	C265.938,296.115,267.251,295.932,268.593,295.598z M173.075,47.404V10h23.334v37.404H173.075z M206.409,10h23.333v37.404h-23.333
	V10z M239.742,10h23.333v37.404h-23.333V10z M288.506,47.404h-15.431V10h15.431V47.404z M147.646,10h15.43v37.404h-15.43V10z
	 M100.5,120.511l58.843-42.625c1.298-0.94,2.066-2.446,2.066-4.049V57.404h111.545v14.91c0,1.599,0.765,3.101,2.057,4.042
	l60.637,44.15c4.848,5.063,7.512,11.693,7.512,18.717v14.3H92.992v-14.3C92.992,132.201,95.655,125.572,100.5,120.511z
	 M73.338,253.045h15.887c1.821,0,3.499-0.991,4.378-2.585c5.189-9.409,15.077-15.254,25.805-15.254
	c16.239,0,29.45,13.211,29.45,29.45v2.581H49.643C54.219,258.644,63.22,253.045,73.338,253.045z M145.353,369.905h-95.34
	l-4.148-30.641h31.108v-10H44.511l-2.906-21.472h36.368v-10H40.251l-2.782-20.556H277.89c-3.044,4.459-9.034,8.878-13.2,8.878
	H161.48c-2.492,0-4.604,1.835-4.951,4.304L145.353,369.905z M317.85,361.785H156.592l6.748-47.993h179.819v22.683
	C343.159,350.431,331.806,361.785,317.85,361.785z" id="id_101" style="fill: rgb(255, 255, 255);"></path>
<g>
</g>
<g>
</g>
<g>
</g>
<g>
</g>
<g>
</g>
<g>
</g>
<g>
</g>
<g>
</g>
<g>
</g>
<g>
</g>
<g>
</g>
<g>
</g>
<g>
</g>
<g>
</g>
<g>
</g>
</svg>